<svg xmlns="http://www.w3.org/2000/svg" viewBox="0 0 60 60" width="30" height="30">
	<style>
		tspan { white-space:pre }
		.shp0 { fill: #aa1d35 } 
	</style>
	<path id="Layer" class="shp0" d="M6 52.48L21.78 39.16L6 24.86L6 52.48Z" />
	<path id="Layer" class="shp0" d="M36.72 40.51L30.67 46C30.48 46.17 30.24 46.25 30 46.25C29.76 46.25 29.51 46.17 29.32 46L23.28 40.51L7.73 53.63L52.26 53.63L36.72 40.51Z" />
	<path id="Layer" fill-rule="evenodd" class="shp0" d="M31.27 6.77L53.41 22.69L30 43.91L6.58 22.69L28.73 6.77C29.49 6.23 30.51 6.23 31.27 6.77ZM30.94 14.9C25.29 14.9 21.65 19.43 21.65 24.67C21.65 29.55 25.19 32.6 29.36 32.6C31.06 32.6 32.49 32.32 33.89 31.59L33.48 30.49C32.44 31.08 31.09 31.38 29.64 31.38C25.88 31.38 23.1 28.76 23.1 24.52C23.1 19.35 26.59 16.07 30.73 16.07C34.67 16.07 36.89 18.72 36.89 22.41C36.89 25.36 35.44 27.08 34.14 27.06C33.3 27.03 33 26.14 33.38 24.21L34.24 19.61C33.58 19.3 32.61 19.07 31.52 19.07C27.99 19.07 25.49 21.95 25.49 25.1C25.49 27.11 26.77 28.3 28.24 28.3C29.77 28.3 30.94 27.57 31.83 26.07L31.93 26.07C31.85 27.62 32.79 28.3 33.81 28.3C36.2 28.3 38.34 26.07 38.34 22.25C38.34 18.01 35.36 14.9 30.94 14.9Z" />
	<path id="Layer" class="shp0" d="M27.17 25C27.17 26.12 27.73 26.93 28.85 26.93C30.33 26.93 31.67 25.05 31.95 23.47L32.49 20.6C32.23 20.52 31.8 20.42 31.22 20.42C28.98 20.42 27.17 22.53 27.17 25Z" />
	<path id="Layer" class="shp0" d="M54 24.86L38.21 39.16L54 52.48L54 24.86Z" />
</svg>